<svg width="20" height="20" viewBox="0 0 20 20" fill="none" xmlns="http://www.w3.org/2000/svg">
<path d="M0 2.22222V17.7778C0 19 1 20 2.22222 20H17.7778C19 20 20 19 20 17.7778V2.22222C20 1 19 0 17.7778 0H2.22222C1 0 0 1 0 2.22222ZM8.88889 17.7778H3.33333C2.72222 17.7778 2.22222 17.2778 2.22222 16.6667V11.1111H7.77778C8.38889 11.1111 8.88889 11.6111 8.88889 12.2222V17.7778ZM7.77778 8.88889H2.22222V3.33333C2.22222 2.72222 2.72222 2.22222 3.33333 2.22222H8.88889V7.77778C8.88889 8.38889 8.38889 8.88889 7.77778 8.88889ZM16.6667 17.7778H11.1111V12.2222C11.1111 11.6111 11.6111 11.1111 12.2222 11.1111H17.7778V16.6667C17.7778 17.2778 17.2778 17.7778 16.6667 17.7778ZM17.7778 8.88889H12.2222C11.6111 8.88889 11.1111 8.38889 11.1111 7.77778V2.22222H16.6667C17.2778 2.22222 17.7778 2.72222 17.7778 3.33333V8.88889Z" fill="#FF9800"/>
</svg>
