<svg width="30" height="30" viewBox="0 0 30 30" fill="none" xmlns="http://www.w3.org/2000/svg">
<path d="M15 0C6.72833 0 0 6.73 0 15C0 23.27 6.72833 30 15 30C23.2717 30 30 23.27 30 15C30 6.73 23.2717 0 15 0ZM15 26.6667C8.56833 26.6667 3.33333 21.4333 3.33333 15C3.33333 8.56667 8.56833 3.33333 15 3.33333C21.4317 3.33333 26.6667 8.56667 26.6667 15C26.6667 21.4333 21.4317 26.6667 15 26.6667ZM16.1783 15L20.5883 10.59C20.7437 10.4333 20.8309 10.2215 20.8309 10.0008C20.8309 9.78013 20.7437 9.56837 20.5883 9.41167C20.4316 9.25625 20.2199 9.16905 19.9992 9.16905C19.7785 9.16905 19.5667 9.25625 19.41 9.41167L15 13.8217L10.59 9.41C10.4328 9.2582 10.2223 9.17421 10.0038 9.1761C9.78533 9.178 9.57632 9.26565 9.42182 9.42015C9.26731 9.57466 9.17967 9.78367 9.17777 10.0022C9.17587 10.2207 9.25987 10.4312 9.41167 10.5883L13.8217 15L9.41167 19.41C9.25519 19.5663 9.16719 19.7783 9.16704 19.9994C9.16688 20.2205 9.25458 20.4327 9.41083 20.5892C9.56709 20.7456 9.77911 20.8336 10.0002 20.8338C10.2214 20.834 10.4335 20.7463 10.59 20.59L15 16.1783L19.41 20.5883C19.4868 20.668 19.5786 20.7316 19.6802 20.7754C19.7818 20.8193 19.8912 20.8424 20.0018 20.8435C20.1124 20.8446 20.2222 20.8237 20.3247 20.7819C20.4271 20.7402 20.5203 20.6784 20.5986 20.6003C20.677 20.5222 20.739 20.4292 20.781 20.3269C20.8231 20.2245 20.8443 20.1148 20.8435 20.0042C20.8427 19.8935 20.8199 19.7842 20.7763 19.6824C20.7328 19.5807 20.6695 19.4887 20.59 19.4117L16.1783 15Z" fill="#FF9800"/>
</svg>
