<svg width="30" height="27" viewBox="0 0 30 27" fill="none" xmlns="http://www.w3.org/2000/svg">
<path fill-rule="evenodd" clip-rule="evenodd" d="M28.125 3.75H1.875C1.37772 3.75 0.900806 3.55246 0.549175 3.20082C0.197544 2.84919 0 2.37228 0 1.875C0 1.37772 0.197544 0.900806 0.549175 0.549175C0.900806 0.197544 1.37772 0 1.875 0H28.125C28.6223 0 29.0992 0.197544 29.4508 0.549175C29.8025 0.900806 30 1.37772 30 1.875C30 2.37228 29.8025 2.84919 29.4508 3.20082C29.0992 3.55246 28.6223 3.75 28.125 3.75ZM20.625 11.25H1.875C1.37772 11.25 0.900806 11.0525 0.549175 10.7008C0.197544 10.3492 0 9.87228 0 9.375C0 8.87772 0.197544 8.40081 0.549175 8.04918C0.900806 7.69754 1.37772 7.5 1.875 7.5H20.625C21.1223 7.5 21.5992 7.69754 21.9508 8.04918C22.3025 8.40081 22.5 8.87772 22.5 9.375C22.5 9.87228 22.3025 10.3492 21.9508 10.7008C21.5992 11.0525 21.1223 11.25 20.625 11.25ZM28.125 18.75H1.875C1.37772 18.75 0.900806 18.5525 0.549175 18.2008C0.197544 17.8492 0 17.3723 0 16.875C0 16.3777 0.197544 15.9008 0.549175 15.5492C0.900806 15.1975 1.37772 15 1.875 15H28.125C28.6223 15 29.0992 15.1975 29.4508 15.5492C29.8025 15.9008 30 16.3777 30 16.875C30 17.3723 29.8025 17.8492 29.4508 18.2008C29.0992 18.5525 28.6223 18.75 28.125 18.75ZM20.625 26.25H1.875C1.37772 26.25 0.900806 26.0525 0.549175 25.7008C0.197544 25.3492 0 24.8723 0 24.375C0 23.8777 0.197544 23.4008 0.549175 23.0492C0.900806 22.6975 1.37772 22.5 1.875 22.5H20.625C21.1223 22.5 21.5992 22.6975 21.9508 23.0492C22.3025 23.4008 22.5 23.8777 22.5 24.375C22.5 24.8723 22.3025 25.3492 21.9508 25.7008C21.5992 26.0525 21.1223 26.25 20.625 26.25Z" fill="#FF9800"/>
</svg>
