<svg width="20" height="20" viewBox="0 0 20 20" fill="none" xmlns="http://www.w3.org/2000/svg">
<path d="M17.7167 10.451H14.5359V8.86058H17.7167V10.451ZM17.7167 11.3597H14.5359V12.9501H17.7167V11.3597ZM17.7167 3.8623H14.5359V5.45265H17.7167V3.86234V3.8623ZM17.7167 6.36144H14.5359V7.95179H17.7167V6.36144ZM17.7167 13.8589H14.5359V15.4493H17.7167V13.8588V13.8589ZM19.9136 16.9942C19.8228 17.4668 19.2548 17.4781 18.8753 17.494H11.8096V19.5387H10.3987L0 17.7212V1.81984L10.4601 0H11.8096V1.81074H18.6323C19.0162 1.82664 19.4388 1.79937 19.7728 2.02883C20.0068 2.36508 19.9841 2.79223 20 3.17844L19.9909 15.0062C19.9796 15.6673 20.0522 16.3421 19.9136 16.9942ZM8.33121 13.4295C7.70418 12.1572 7.06578 10.894 6.44097 9.62168C7.05894 8.38347 7.66785 7.14074 8.27445 5.89797C7.75871 5.92297 7.24297 5.95476 6.72953 5.99113C6.34554 6.92488 5.89797 7.83367 5.59808 8.79925C5.31863 7.8882 4.94832 7.01121 4.6098 6.12289C4.10996 6.15015 3.61012 6.17969 3.11031 6.20922C3.63738 7.3725 4.19859 8.51976 4.70976 9.68984C4.10769 10.8258 3.54426 11.9777 2.96035 13.1205C3.45789 13.1409 3.95547 13.1614 4.45301 13.1682C4.80746 12.264 5.2482 11.3938 5.55719 10.4714C5.83437 11.462 6.30465 12.3776 6.6909 13.325C7.23843 13.3636 7.78371 13.3977 8.33125 13.4295H8.33121ZM18.9164 2.88976H11.8096V3.8623H13.6272V5.45265H11.8096V6.36144H13.6272V7.95179H11.8096V8.86058H13.6272V10.451H11.8096V11.3597H13.6272V12.9501H11.8096V13.8589H13.6272V15.4493H11.8096V16.4999H18.9164V2.88976Z" fill="#FF9800"/>
</svg>
