<svg width="30" height="23" viewBox="0 0 30 23" fill="none" xmlns="http://www.w3.org/2000/svg">
<path fill-rule="evenodd" clip-rule="evenodd" d="M27.1875 1.875H2.8125C2.56386 1.875 2.3254 1.97377 2.14959 2.14959C1.97377 2.3254 1.875 2.56386 1.875 2.8125V19.6875C1.875 19.9361 1.97377 20.1746 2.14959 20.3504C2.3254 20.5262 2.56386 20.625 2.8125 20.625H27.1875C27.4361 20.625 27.6746 20.5262 27.8504 20.3504C28.0262 20.1746 28.125 19.9361 28.125 19.6875V2.8125C28.125 2.56386 28.0262 2.3254 27.8504 2.14959C27.6746 1.97377 27.4361 1.875 27.1875 1.875ZM2.8125 0C2.06658 0 1.35121 0.296316 0.823762 0.823762C0.296316 1.35121 0 2.06658 0 2.8125L0 19.6875C0 20.4334 0.296316 21.1488 0.823762 21.6762C1.35121 22.2037 2.06658 22.5 2.8125 22.5H27.1875C27.9334 22.5 28.6488 22.2037 29.1762 21.6762C29.7037 21.1488 30 20.4334 30 19.6875V2.8125C30 2.06658 29.7037 1.35121 29.1762 0.823762C28.6488 0.296316 27.9334 0 27.1875 0H2.8125Z" fill="#FF9800"/>
<path fill-rule="evenodd" clip-rule="evenodd" d="M5.625 12.1875C5.625 11.9389 5.72377 11.7004 5.89959 11.5246C6.0754 11.3488 6.31386 11.25 6.5625 11.25H23.4375C23.6861 11.25 23.9246 11.3488 24.1004 11.5246C24.2762 11.7004 24.375 11.9389 24.375 12.1875C24.375 12.4361 24.2762 12.6746 24.1004 12.8504C23.9246 13.0262 23.6861 13.125 23.4375 13.125H6.5625C6.31386 13.125 6.0754 13.0262 5.89959 12.8504C5.72377 12.6746 5.625 12.4361 5.625 12.1875ZM5.625 15.9375C5.625 15.6889 5.72377 15.4504 5.89959 15.2746C6.0754 15.0988 6.31386 15 6.5625 15H17.8125C18.0611 15 18.2996 15.0988 18.4754 15.2746C18.6512 15.4504 18.75 15.6889 18.75 15.9375C18.75 16.1861 18.6512 16.4246 18.4754 16.6004C18.2996 16.7762 18.0611 16.875 17.8125 16.875H6.5625C6.31386 16.875 6.0754 16.7762 5.89959 16.6004C5.72377 16.4246 5.625 16.1861 5.625 15.9375Z" fill="#FF9800"/>
<path d="M5.625 6.5625C5.625 6.31386 5.72377 6.0754 5.89959 5.89959C6.0754 5.72377 6.31386 5.625 6.5625 5.625H23.4375C23.6861 5.625 23.9246 5.72377 24.1004 5.89959C24.2762 6.0754 24.375 6.31386 24.375 6.5625V8.4375C24.375 8.68614 24.2762 8.9246 24.1004 9.10041C23.9246 9.27623 23.6861 9.375 23.4375 9.375H6.5625C6.31386 9.375 6.0754 9.27623 5.89959 9.10041C5.72377 8.9246 5.625 8.68614 5.625 8.4375V6.5625Z" fill="#FF9800"/>
</svg>
