<svg width="20" height="20" viewBox="0 0 20 20" fill="none" xmlns="http://www.w3.org/2000/svg">
<path d="M18.75 20H8.75V19.9805C8.41146 19.9805 8.11849 19.8602 7.87109 19.6195C7.6237 19.3789 7.5 19.0829 7.5 18.7317V16.3512C8.60677 15.8699 9.50846 15.1545 10.2051 14.2049C10.9017 13.2553 11.25 12.2667 11.25 11.239C11.25 10.3415 10.9701 9.50894 10.4102 8.74146C9.85026 7.97398 9.0918 7.36585 8.13477 6.91707C7.17773 6.46829 6.13281 6.2439 5 6.2439C4.66146 6.2439 4.36849 6.12358 4.12109 5.88293C3.8737 5.64228 3.75 5.34634 3.75 4.99512V1.26829C3.75 0.930081 3.8737 0.637398 4.12109 0.390244C4.36849 0.143089 4.66146 0.0195122 5 0.0195122H12.5V6.8878C12.5 7.05691 12.5618 7.20325 12.6855 7.32683C12.8092 7.45041 12.9557 7.5122 13.125 7.5122H19.9805C19.9935 7.5252 20 7.53821 20 7.55122V18.7512C20 19.1024 19.8796 19.3984 19.6387 19.639C19.3978 19.8797 19.1016 20 18.75 20ZM13.75 0C14.0885 0.0130081 14.375 0.136585 14.6094 0.370732L19.6289 5.38537C19.8763 5.63252 19.9935 5.9252 19.9805 6.26341H13.75V0ZM10 11.239C10 12.1106 9.64844 12.8813 8.94531 13.5512C8.24219 14.2211 7.34375 14.6602 6.25 14.8683V15.6098C6.25 15.7919 6.18815 15.9415 6.06445 16.0585C5.94076 16.1756 5.79427 16.2341 5.625 16.2341H4.375C4.20573 16.2341 4.05924 16.1756 3.93555 16.0585C3.81185 15.9415 3.75 15.7919 3.75 15.6098V13.7366C3.75 13.3984 3.8737 13.1057 4.12109 12.8585C4.36849 12.6114 4.66146 12.4878 5 12.4878C5.6901 12.4878 6.2793 12.3675 6.76758 12.1268C7.25586 11.8862 7.5 11.5935 7.5 11.2488C7.5 10.9041 7.25586 10.6081 6.76758 10.361C6.2793 10.1138 5.6901 9.99024 5 9.99024C4.3099 9.99024 3.7207 10.1138 3.23242 10.361C2.74414 10.6081 2.5 10.9008 2.5 11.239C2.5 11.4211 2.43815 11.5707 2.31445 11.6878C2.19076 11.8049 2.04427 11.8634 1.875 11.8634H0.625C0.455729 11.8634 0.309245 11.8049 0.185547 11.6878C0.061849 11.5707 0 11.4211 0 11.239V9.99024C0 9.79512 0.113932 9.56098 0.341797 9.2878C0.569661 9.01463 0.885417 8.74146 1.28906 8.46829C1.69271 8.19512 2.22331 7.96423 2.88086 7.77561C3.53841 7.58699 4.24479 7.49268 5 7.49268C6.38021 7.49268 7.55859 7.86016 8.53516 8.59512C9.51172 9.33008 10 10.2114 10 11.239ZM4.375 17.4829H5.625C5.79427 17.4829 5.94076 17.5447 6.06445 17.6683C6.18815 17.7919 6.25 17.9382 6.25 18.1073V19.3561C6.25 19.5382 6.18815 19.6878 6.06445 19.8049C5.94076 19.922 5.79427 19.9805 5.625 19.9805H4.375C4.20573 19.9805 4.05924 19.922 3.93555 19.8049C3.81185 19.6878 3.75 19.5382 3.75 19.3561V18.1073C3.75 17.9382 3.81185 17.7919 3.93555 17.6683C4.05924 17.5447 4.20573 17.4829 4.375 17.4829Z" fill="#FF9800"/>
</svg>
