<svg width="228" height="40" viewBox="0 0 228 40" fill="none" xmlns="http://www.w3.org/2000/svg">
<path d="M127.162 29L127.136 16.936L121.156 26.92H119.648L113.668 17.092V29H110.444V10.8H113.226L120.454 22.864L127.552 10.8H130.334L130.36 29H127.162ZM140.268 14.96C142.313 14.96 143.873 15.454 144.948 16.442C146.04 17.4127 146.586 18.886 146.586 20.862V29H143.518V27.31C143.119 27.9167 142.547 28.3847 141.802 28.714C141.074 29.026 140.19 29.182 139.15 29.182C138.11 29.182 137.2 29.0087 136.42 28.662C135.64 28.298 135.033 27.804 134.6 27.18C134.184 26.5387 133.976 25.8193 133.976 25.022C133.976 23.774 134.435 22.7773 135.354 22.032C136.29 21.2693 137.755 20.888 139.748 20.888H143.336V20.68C143.336 19.7093 143.041 18.964 142.452 18.444C141.88 17.924 141.022 17.664 139.878 17.664C139.098 17.664 138.327 17.7853 137.564 18.028C136.819 18.2707 136.186 18.6087 135.666 19.042L134.392 16.676C135.12 16.1213 135.995 15.6967 137.018 15.402C138.041 15.1073 139.124 14.96 140.268 14.96ZM139.826 26.816C140.641 26.816 141.36 26.634 141.984 26.27C142.625 25.8887 143.076 25.3513 143.336 24.658V23.046H139.982C138.11 23.046 137.174 23.6613 137.174 24.892C137.174 25.4813 137.408 25.9493 137.876 26.296C138.344 26.6427 138.994 26.816 139.826 26.816ZM158.635 14.96C160.386 14.96 161.79 15.4713 162.847 16.494C163.904 17.5167 164.433 19.0333 164.433 21.044V29H161.183V21.46C161.183 20.2467 160.897 19.3367 160.325 18.73C159.753 18.106 158.938 17.794 157.881 17.794C156.685 17.794 155.74 18.158 155.047 18.886C154.354 19.5967 154.007 20.628 154.007 21.98V29H150.757V15.116H153.851V16.91C154.388 16.2687 155.064 15.7833 155.879 15.454C156.694 15.1247 157.612 14.96 158.635 14.96ZM173.86 14.96C175.905 14.96 177.465 15.454 178.54 16.442C179.632 17.4127 180.178 18.886 180.178 20.862V29H177.11V27.31C176.711 27.9167 176.139 28.3847 175.394 28.714C174.666 29.026 173.782 29.182 172.742 29.182C171.702 29.182 170.792 29.0087 170.012 28.662C169.232 28.298 168.625 27.804 168.192 27.18C167.776 26.5387 167.568 25.8193 167.568 25.022C167.568 23.774 168.027 22.7773 168.946 22.032C169.882 21.2693 171.346 20.888 173.34 20.888H176.928V20.68C176.928 19.7093 176.633 18.964 176.044 18.444C175.472 17.924 174.614 17.664 173.47 17.664C172.69 17.664 171.918 17.7853 171.156 18.028C170.41 18.2707 169.778 18.6087 169.258 19.042L167.984 16.676C168.712 16.1213 169.587 15.6967 170.61 15.402C171.632 15.1073 172.716 14.96 173.86 14.96ZM173.418 26.816C174.232 26.816 174.952 26.634 175.576 26.27C176.217 25.8887 176.668 25.3513 176.928 24.658V23.046H173.574C171.702 23.046 170.766 23.6613 170.766 24.892C170.766 25.4813 171 25.9493 171.468 26.296C171.936 26.6427 172.586 26.816 173.418 26.816ZM198.256 15.116V26.894C198.256 31.782 195.76 34.226 190.768 34.226C189.433 34.226 188.168 34.0527 186.972 33.706C185.776 33.3767 184.788 32.8913 184.008 32.25L185.464 29.806C186.07 30.3087 186.833 30.7073 187.752 31.002C188.688 31.314 189.632 31.47 190.586 31.47C192.111 31.47 193.229 31.1233 193.94 30.43C194.65 29.7367 195.006 28.6793 195.006 27.258V26.53C194.451 27.1367 193.775 27.596 192.978 27.908C192.18 28.22 191.305 28.376 190.352 28.376C189.034 28.376 187.838 28.0987 186.764 27.544C185.706 26.972 184.866 26.1747 184.242 25.152C183.635 24.1293 183.332 22.9593 183.332 21.642C183.332 20.3247 183.635 19.1633 184.242 18.158C184.866 17.1353 185.706 16.3467 186.764 15.792C187.838 15.2373 189.034 14.96 190.352 14.96C191.357 14.96 192.267 15.1247 193.082 15.454C193.914 15.7833 194.607 16.286 195.162 16.962V15.116H198.256ZM190.846 25.62C192.076 25.62 193.082 25.256 193.862 24.528C194.659 23.7827 195.058 22.8207 195.058 21.642C195.058 20.4807 194.659 19.536 193.862 18.808C193.082 18.08 192.076 17.716 190.846 17.716C189.598 17.716 188.575 18.08 187.778 18.808C186.998 19.536 186.608 20.4807 186.608 21.642C186.608 22.8207 186.998 23.7827 187.778 24.528C188.575 25.256 189.598 25.62 190.846 25.62ZM215.58 22.136C215.58 22.3613 215.563 22.682 215.528 23.098H204.634C204.825 24.1207 205.319 24.9353 206.116 25.542C206.931 26.1313 207.936 26.426 209.132 26.426C210.658 26.426 211.914 25.9233 212.902 24.918L214.644 26.92C214.02 27.6653 213.232 28.2287 212.278 28.61C211.325 28.9913 210.25 29.182 209.054 29.182C207.529 29.182 206.186 28.8787 205.024 28.272C203.863 27.6653 202.962 26.8247 202.32 25.75C201.696 24.658 201.384 23.4273 201.384 22.058C201.384 20.706 201.688 19.4927 202.294 18.418C202.918 17.326 203.776 16.4767 204.868 15.87C205.96 15.2633 207.191 14.96 208.56 14.96C209.912 14.96 211.117 15.2633 212.174 15.87C213.249 16.4593 214.081 17.3 214.67 18.392C215.277 19.4667 215.58 20.7147 215.58 22.136ZM208.56 17.56C207.52 17.56 206.636 17.872 205.908 18.496C205.198 19.1027 204.764 19.9173 204.608 20.94H212.486C212.348 19.9347 211.923 19.12 211.212 18.496C210.502 17.872 209.618 17.56 208.56 17.56ZM221.796 17.144C222.732 15.688 224.379 14.96 226.736 14.96V18.054C226.459 18.002 226.208 17.976 225.982 17.976C224.717 17.976 223.729 18.3487 223.018 19.094C222.308 19.822 221.952 20.8793 221.952 22.266V29H218.702V15.116H221.796V17.144Z" fill="white"/>
<rect width="100" height="40" rx="20" fill="white"/>
<path d="M25.136 13.66H19.104V10.8H34.548V13.66H28.516V29H25.136V13.66ZM41.3403 14.96C43.3856 14.96 44.9456 15.454 46.0203 16.442C47.1123 17.4127 47.6583 18.886 47.6583 20.862V29H44.5903V27.31C44.1916 27.9167 43.6196 28.3847 42.8743 28.714C42.1463 29.026 41.2623 29.182 40.2223 29.182C39.1823 29.182 38.2723 29.0087 37.4923 28.662C36.7123 28.298 36.1056 27.804 35.6723 27.18C35.2563 26.5387 35.0483 25.8193 35.0483 25.022C35.0483 23.774 35.5076 22.7773 36.4263 22.032C37.3623 21.2693 38.827 20.888 40.8203 20.888H44.4083V20.68C44.4083 19.7093 44.1136 18.964 43.5243 18.444C42.9523 17.924 42.0943 17.664 40.9503 17.664C40.1703 17.664 39.399 17.7853 38.6363 18.028C37.891 18.2707 37.2583 18.6087 36.7383 19.042L35.4643 16.676C36.1923 16.1213 37.0676 15.6967 38.0903 15.402C39.113 15.1073 40.1963 14.96 41.3403 14.96ZM40.8983 26.816C41.713 26.816 42.4323 26.634 43.0563 26.27C43.6976 25.8887 44.1483 25.3513 44.4083 24.658V23.046H41.0543C39.1823 23.046 38.2463 23.6613 38.2463 24.892C38.2463 25.4813 38.4803 25.9493 38.9483 26.296C39.4163 26.6427 40.0663 26.816 40.8983 26.816ZM56.1193 29.182C54.9926 29.182 53.8919 29.0347 52.8173 28.74C51.7426 28.4453 50.8846 28.0727 50.2433 27.622L51.4913 25.152C52.1153 25.568 52.8606 25.906 53.7273 26.166C54.6113 26.4087 55.4779 26.53 56.3273 26.53C58.2686 26.53 59.2393 26.0187 59.2393 24.996C59.2393 24.5107 58.9879 24.1727 58.4853 23.982C57.9999 23.7913 57.2113 23.6093 56.1193 23.436C54.9753 23.2627 54.0393 23.0633 53.3113 22.838C52.6006 22.6127 51.9766 22.2227 51.4393 21.668C50.9193 21.096 50.6593 20.3073 50.6593 19.302C50.6593 17.9847 51.2053 16.936 52.2973 16.156C53.4066 15.3587 54.8973 14.96 56.7693 14.96C57.7226 14.96 58.6759 15.0727 59.6293 15.298C60.5826 15.506 61.3626 15.792 61.9693 16.156L60.7213 18.626C59.5426 17.9327 58.2166 17.586 56.7433 17.586C55.7899 17.586 55.0619 17.7333 54.5593 18.028C54.0739 18.3053 53.8313 18.678 53.8313 19.146C53.8313 19.666 54.0913 20.0387 54.6113 20.264C55.1486 20.472 55.9719 20.6713 57.0813 20.862C58.1906 21.0353 59.1006 21.2347 59.8113 21.46C60.5219 21.6853 61.1286 22.0667 61.6313 22.604C62.1513 23.1413 62.4113 23.904 62.4113 24.892C62.4113 26.192 61.8479 27.232 60.7213 28.012C59.5946 28.792 58.0606 29.182 56.1193 29.182ZM70.8781 23.046L68.4601 25.334V29H65.2101V9.708H68.4601V21.356L75.1941 15.116H79.0941L73.2961 20.94L79.6401 29H75.6881L70.8781 23.046Z" fill="#455A64"/>
</svg>
