<svg width="6" height="30" viewBox="0 0 6 30" fill="none" xmlns="http://www.w3.org/2000/svg">
<path d="M3 6C4.65685 6 6 4.65685 6 3C6 1.34315 4.65685 0 3 0C1.34315 0 0 1.34315 0 3C0 4.65685 1.34315 6 3 6Z" fill="#FF9800"/>
<path d="M3 18C4.65685 18 6 16.6569 6 15C6 13.3431 4.65685 12 3 12C1.34315 12 0 13.3431 0 15C0 16.6569 1.34315 18 3 18Z" fill="#FF9800"/>
<path d="M3 30C4.65685 30 6 28.6569 6 27C6 25.3431 4.65685 24 3 24C1.34315 24 0 25.3431 0 27C0 28.6569 1.34315 30 3 30Z" fill="#FF9800"/>
</svg>
