<svg width="20" height="20" viewBox="0 0 20 20" fill="none" xmlns="http://www.w3.org/2000/svg">
<path d="M16.9231 18.4615H1.53846V3.07691H8.46154V1.53845H1.53846C1.13044 1.53845 0.739122 1.70054 0.450605 1.98906C0.162087 2.27757 0 2.66889 0 3.07691V18.4615C0 18.8696 0.162087 19.2609 0.450605 19.5494C0.739122 19.8379 1.13044 20 1.53846 20H16.9231C17.3311 20 17.7224 19.8379 18.0109 19.5494C18.2994 19.2609 18.4615 18.8696 18.4615 18.4615V11.5385H16.9231V18.4615Z" fill="white"/>
<path d="M16.923 3.07692V0H15.3845V3.07692H12.3076V4.61538H15.3845V7.69231H16.923V4.61538H19.9999V3.07692H16.923Z" fill="white"/>
</svg>
