<svg width="75" height="75" viewBox="0 0 75 75" fill="none" xmlns="http://www.w3.org/2000/svg">
<path d="M16.72 30V44H14.12V32.18H11.16V30H16.72ZM25.3372 44.2C24.2172 44.2 23.2172 43.92 22.3372 43.36C21.4572 42.7867 20.7639 41.96 20.2572 40.88C19.7505 39.7867 19.4972 38.4933 19.4972 37C19.4972 35.5067 19.7505 34.22 20.2572 33.14C20.7639 32.0467 21.4572 31.22 22.3372 30.66C23.2172 30.0867 24.2172 29.8 25.3372 29.8C26.4572 29.8 27.4572 30.0867 28.3372 30.66C29.2305 31.22 29.9305 32.0467 30.4372 33.14C30.9439 34.22 31.1972 35.5067 31.1972 37C31.1972 38.4933 30.9439 39.7867 30.4372 40.88C29.9305 41.96 29.2305 42.7867 28.3372 43.36C27.4572 43.92 26.4572 44.2 25.3372 44.2ZM25.3372 41.94C26.3372 41.94 27.1239 41.5267 27.6972 40.7C28.2839 39.8733 28.5772 38.64 28.5772 37C28.5772 35.36 28.2839 34.1267 27.6972 33.3C27.1239 32.4733 26.3372 32.06 25.3372 32.06C24.3505 32.06 23.5639 32.4733 22.9772 33.3C22.4039 34.1267 22.1172 35.36 22.1172 37C22.1172 38.64 22.4039 39.8733 22.9772 40.7C23.5639 41.5267 24.3505 41.94 25.3372 41.94ZM38.7942 44.2C37.6742 44.2 36.6742 43.92 35.7942 43.36C34.9142 42.7867 34.2209 41.96 33.7142 40.88C33.2076 39.7867 32.9542 38.4933 32.9542 37C32.9542 35.5067 33.2076 34.22 33.7142 33.14C34.2209 32.0467 34.9142 31.22 35.7942 30.66C36.6742 30.0867 37.6742 29.8 38.7942 29.8C39.9142 29.8 40.9142 30.0867 41.7942 30.66C42.6876 31.22 43.3876 32.0467 43.8942 33.14C44.4009 34.22 44.6542 35.5067 44.6542 37C44.6542 38.4933 44.4009 39.7867 43.8942 40.88C43.3876 41.96 42.6876 42.7867 41.7942 43.36C40.9142 43.92 39.9142 44.2 38.7942 44.2ZM38.7942 41.94C39.7942 41.94 40.5809 41.5267 41.1542 40.7C41.7409 39.8733 42.0342 38.64 42.0342 37C42.0342 35.36 41.7409 34.1267 41.1542 33.3C40.5809 32.4733 39.7942 32.06 38.7942 32.06C37.8076 32.06 37.0209 32.4733 36.4342 33.3C35.8609 34.1267 35.5742 35.36 35.5742 37C35.5742 38.64 35.8609 39.8733 36.4342 40.7C37.0209 41.5267 37.8076 41.94 38.7942 41.94ZM49.5313 37.54C48.5313 37.54 47.7246 37.1867 47.1113 36.48C46.4979 35.7733 46.1912 34.8467 46.1912 33.7C46.1912 32.5533 46.4979 31.6267 47.1113 30.92C47.7246 30.2133 48.5313 29.86 49.5313 29.86C50.5313 29.86 51.3379 30.2133 51.9513 30.92C52.5779 31.6133 52.8913 32.54 52.8913 33.7C52.8913 34.86 52.5779 35.7933 51.9513 36.5C51.3379 37.1933 50.5313 37.54 49.5313 37.54ZM57.9313 30H59.8913L50.3313 44H48.3713L57.9313 30ZM49.5313 36.14C50.0779 36.14 50.4979 35.9267 50.7913 35.5C51.0979 35.0733 51.2513 34.4733 51.2513 33.7C51.2513 32.9267 51.0979 32.3267 50.7913 31.9C50.4979 31.4733 50.0779 31.26 49.5313 31.26C49.0113 31.26 48.5913 31.48 48.2713 31.92C47.9646 32.3467 47.8113 32.94 47.8113 33.7C47.8113 34.46 47.9646 35.06 48.2713 35.5C48.5913 35.9267 49.0113 36.14 49.5313 36.14ZM58.7113 44.14C57.7113 44.14 56.9046 43.7867 56.2913 43.08C55.6779 42.3733 55.3713 41.4467 55.3713 40.3C55.3713 39.1533 55.6779 38.2267 56.2913 37.52C56.9046 36.8133 57.7113 36.46 58.7113 36.46C59.7113 36.46 60.5179 36.8133 61.1313 37.52C61.7579 38.2267 62.0713 39.1533 62.0713 40.3C62.0713 41.4467 61.7579 42.3733 61.1313 43.08C60.5179 43.7867 59.7113 44.14 58.7113 44.14ZM58.7113 42.74C59.2446 42.74 59.6646 42.5267 59.9713 42.1C60.2779 41.66 60.4313 41.06 60.4313 40.3C60.4313 39.54 60.2779 38.9467 59.9713 38.52C59.6646 38.08 59.2446 37.86 58.7113 37.86C58.1779 37.86 57.7579 38.0733 57.4513 38.5C57.1446 38.9267 56.9913 39.5267 56.9913 40.3C56.9913 41.0733 57.1446 41.6733 57.4513 42.1C57.7579 42.5267 58.1779 42.74 58.7113 42.74Z" fill="#FF9800"/>
<circle cx="37.5" cy="37.5" r="36" stroke="#FF9800" stroke-width="3"/>
</svg>
