<svg width="75" height="75" viewBox="0 0 75 75" fill="none" xmlns="http://www.w3.org/2000/svg">
<path d="M28.72 44.2C27.6 44.2 26.6 43.92 25.72 43.36C24.84 42.7867 24.1467 41.96 23.64 40.88C23.1333 39.7867 22.88 38.4933 22.88 37C22.88 35.5067 23.1333 34.22 23.64 33.14C24.1467 32.0467 24.84 31.22 25.72 30.66C26.6 30.0867 27.6 29.8 28.72 29.8C29.84 29.8 30.84 30.0867 31.72 30.66C32.6133 31.22 33.3133 32.0467 33.82 33.14C34.3267 34.22 34.58 35.5067 34.58 37C34.58 38.4933 34.3267 39.7867 33.82 40.88C33.3133 41.96 32.6133 42.7867 31.72 43.36C30.84 43.92 29.84 44.2 28.72 44.2ZM28.72 41.94C29.72 41.94 30.5067 41.5267 31.08 40.7C31.6667 39.8733 31.96 38.64 31.96 37C31.96 35.36 31.6667 34.1267 31.08 33.3C30.5067 32.4733 29.72 32.06 28.72 32.06C27.7333 32.06 26.9467 32.4733 26.36 33.3C25.7867 34.1267 25.5 35.36 25.5 37C25.5 38.64 25.7867 39.8733 26.36 40.7C26.9467 41.5267 27.7333 41.94 28.72 41.94ZM39.457 37.54C38.457 37.54 37.6504 37.1867 37.037 36.48C36.4237 35.7733 36.117 34.8467 36.117 33.7C36.117 32.5533 36.4237 31.6267 37.037 30.92C37.6504 30.2133 38.457 29.86 39.457 29.86C40.457 29.86 41.2637 30.2133 41.877 30.92C42.5037 31.6133 42.817 32.54 42.817 33.7C42.817 34.86 42.5037 35.7933 41.877 36.5C41.2637 37.1933 40.457 37.54 39.457 37.54ZM47.857 30H49.817L40.257 44H38.297L47.857 30ZM39.457 36.14C40.0037 36.14 40.4237 35.9267 40.717 35.5C41.0237 35.0733 41.177 34.4733 41.177 33.7C41.177 32.9267 41.0237 32.3267 40.717 31.9C40.4237 31.4733 40.0037 31.26 39.457 31.26C38.937 31.26 38.517 31.48 38.197 31.92C37.8904 32.3467 37.737 32.94 37.737 33.7C37.737 34.46 37.8904 35.06 38.197 35.5C38.517 35.9267 38.937 36.14 39.457 36.14ZM48.637 44.14C47.637 44.14 46.8304 43.7867 46.217 43.08C45.6037 42.3733 45.297 41.4467 45.297 40.3C45.297 39.1533 45.6037 38.2267 46.217 37.52C46.8304 36.8133 47.637 36.46 48.637 36.46C49.637 36.46 50.4437 36.8133 51.057 37.52C51.6837 38.2267 51.997 39.1533 51.997 40.3C51.997 41.4467 51.6837 42.3733 51.057 43.08C50.4437 43.7867 49.637 44.14 48.637 44.14ZM48.637 42.74C49.1704 42.74 49.5904 42.5267 49.897 42.1C50.2037 41.66 50.357 41.06 50.357 40.3C50.357 39.54 50.2037 38.9467 49.897 38.52C49.5904 38.08 49.1704 37.86 48.637 37.86C48.1037 37.86 47.6837 38.0733 47.377 38.5C47.0704 38.9267 46.917 39.5267 46.917 40.3C46.917 41.0733 47.0704 41.6733 47.377 42.1C47.6837 42.5267 48.1037 42.74 48.637 42.74Z" fill="#CFD8DC"/>
<circle cx="37.5" cy="37.5" r="36" stroke="#CFD8DC" stroke-width="3"/>
</svg>
