<svg width="79" height="79" viewBox="0 0 79 79" fill="none" xmlns="http://www.w3.org/2000/svg">
<path d="M23.26 37.4199C25.2333 37.4199 26.6933 37.8065 27.64 38.5799C28.5867 39.3399 29.06 40.3799 29.06 41.6999C29.06 42.5399 28.8533 43.2999 28.44 43.9799C28.0267 44.6599 27.4067 45.1999 26.58 45.5999C25.7533 45.9999 24.7333 46.1999 23.52 46.1999C22.52 46.1999 21.5533 46.0599 20.62 45.7799C19.6867 45.4865 18.9 45.0865 18.26 44.5799L19.36 42.5599C19.88 42.9865 20.5 43.3265 21.22 43.5799C21.9533 43.8199 22.7067 43.9399 23.48 43.9399C24.4 43.9399 25.12 43.7532 25.64 43.3799C26.1733 42.9932 26.44 42.4665 26.44 41.7999C26.44 41.0799 26.1533 40.5399 25.58 40.1799C25.02 39.8065 24.0533 39.6199 22.68 39.6199H19.3L20.02 31.9999H28.24V34.1799H22.22L21.92 37.4199H23.26ZM36.3997 46.1999C35.2797 46.1999 34.2797 45.9199 33.3997 45.3599C32.5197 44.7865 31.8264 43.9599 31.3197 42.8799C30.813 41.7865 30.5597 40.4932 30.5597 38.9999C30.5597 37.5065 30.813 36.2199 31.3197 35.1399C31.8264 34.0465 32.5197 33.2199 33.3997 32.6599C34.2797 32.0865 35.2797 31.7999 36.3997 31.7999C37.5197 31.7999 38.5197 32.0865 39.3997 32.6599C40.293 33.2199 40.993 34.0465 41.4997 35.1399C42.0064 36.2199 42.2597 37.5065 42.2597 38.9999C42.2597 40.4932 42.0064 41.7865 41.4997 42.8799C40.993 43.9599 40.293 44.7865 39.3997 45.3599C38.5197 45.9199 37.5197 46.1999 36.3997 46.1999ZM36.3997 43.9399C37.3997 43.9399 38.1864 43.5265 38.7597 42.6999C39.3464 41.8732 39.6397 40.6399 39.6397 38.9999C39.6397 37.3599 39.3464 36.1265 38.7597 35.2999C38.1864 34.4732 37.3997 34.0599 36.3997 34.0599C35.413 34.0599 34.6264 34.4732 34.0397 35.2999C33.4664 36.1265 33.1797 37.3599 33.1797 38.9999C33.1797 40.6399 33.4664 41.8732 34.0397 42.6999C34.6264 43.5265 35.413 43.9399 36.3997 43.9399ZM47.1367 39.5399C46.1367 39.5399 45.3301 39.1865 44.7167 38.4799C44.1034 37.7732 43.7967 36.8465 43.7967 35.6999C43.7967 34.5532 44.1034 33.6265 44.7167 32.9199C45.3301 32.2132 46.1367 31.8599 47.1367 31.8599C48.1367 31.8599 48.9434 32.2132 49.5567 32.9199C50.1834 33.6132 50.4967 34.5399 50.4967 35.6999C50.4967 36.8599 50.1834 37.7932 49.5567 38.4999C48.9434 39.1932 48.1367 39.5399 47.1367 39.5399ZM55.5367 31.9999H57.4967L47.9367 45.9999H45.9767L55.5367 31.9999ZM47.1367 38.1399C47.6834 38.1399 48.1034 37.9265 48.3967 37.4999C48.7034 37.0732 48.8567 36.4732 48.8567 35.6999C48.8567 34.9265 48.7034 34.3265 48.3967 33.8999C48.1034 33.4732 47.6834 33.2599 47.1367 33.2599C46.6167 33.2599 46.1967 33.4799 45.8767 33.9199C45.5701 34.3465 45.4167 34.9399 45.4167 35.6999C45.4167 36.4599 45.5701 37.0599 45.8767 37.4999C46.1967 37.9265 46.6167 38.1399 47.1367 38.1399ZM56.3167 46.1399C55.3167 46.1399 54.5101 45.7865 53.8967 45.0799C53.2834 44.3732 52.9767 43.4465 52.9767 42.2999C52.9767 41.1532 53.2834 40.2265 53.8967 39.5199C54.5101 38.8132 55.3167 38.4599 56.3167 38.4599C57.3167 38.4599 58.1234 38.8132 58.7367 39.5199C59.3634 40.2265 59.6767 41.1532 59.6767 42.2999C59.6767 43.4465 59.3634 44.3732 58.7367 45.0799C58.1234 45.7865 57.3167 46.1399 56.3167 46.1399ZM56.3167 44.7399C56.8501 44.7399 57.2701 44.5265 57.5767 44.0999C57.8834 43.6599 58.0367 43.0599 58.0367 42.2999C58.0367 41.5399 57.8834 40.9465 57.5767 40.5199C57.2701 40.0799 56.8501 39.8599 56.3167 39.8599C55.7834 39.8599 55.3634 40.0732 55.0567 40.4999C54.7501 40.9265 54.5967 41.5265 54.5967 42.2999C54.5967 43.0732 54.7501 43.6732 55.0567 44.0999C55.3634 44.5265 55.7834 44.7399 56.3167 44.7399Z" fill="#FF9800"/>
<circle cx="39.5" cy="39.5" r="37.5" stroke="#CFD8DC" stroke-width="3"/>
<path d="M39.7733 76.9989C34.8489 77.0348 29.9656 76.1004 25.4023 74.249C20.839 72.3977 16.685 69.6657 13.1775 66.2089C9.67001 62.7522 6.87773 58.6385 4.96008 54.1026C3.04242 49.5668 2.03695 44.6976 2.00107 39.7732C1.96518 34.8487 2.89959 29.9654 4.75094 25.4021C6.60229 20.8388 9.33433 16.6848 12.7911 13.1773C16.2478 9.66985 20.3615 6.87757 24.8974 4.95992C29.4332 3.04226 34.3024 2.03679 39.2268 2.00091" stroke="#FF9800" stroke-width="3"/>
</svg>
