<svg width="30" height="31" viewBox="0 0 30 31" fill="none" xmlns="http://www.w3.org/2000/svg">
<path d="M29.629 12.7326L26.2757 11.7316C26.0438 10.9221 25.725 10.1402 25.3247 9.39934L26.9664 6.32633C27.0279 6.21034 27.0505 6.07758 27.0307 5.94775C27.0108 5.81792 26.9497 5.69794 26.8562 5.60563L24.4639 3.20328C24.3716 3.10986 24.2516 3.04869 24.1218 3.02886C23.992 3.00902 23.8592 3.03158 23.7432 3.09318L20.6902 4.72477C19.9421 4.30502 19.1498 3.96932 18.3279 3.72379L17.3269 0.410554C17.2846 0.288451 17.2046 0.182931 17.0985 0.109182C16.9923 0.0354324 16.8656 -0.00274192 16.7364 0.000153319H13.353C13.2231 0.000758484 13.0967 0.0428296 12.9922 0.120244C12.8878 0.197658 12.8108 0.306376 12.7725 0.430574L11.7715 3.7338C10.9427 3.97802 10.1437 4.31375 9.38917 4.73478L6.38624 3.1132C6.27025 3.0516 6.13748 3.02904 6.00765 3.04888C5.87782 3.06871 5.75785 3.12988 5.66554 3.2233L3.23316 5.59562C3.13974 5.68793 3.07857 5.80791 3.05873 5.93774C3.0389 6.06757 3.06145 6.20033 3.12305 6.31633L4.74464 9.31926C4.32428 10.0706 3.98857 10.8662 3.74366 11.6916L0.430421 12.6926C0.306222 12.7309 0.197505 12.8079 0.120091 12.9123C0.0426762 13.0167 0.000605165 13.1431 0 13.2731V16.6564C0.000605165 16.7864 0.0426762 16.9128 0.120091 17.0172C0.197505 17.1217 0.306222 17.1986 0.430421 17.237L3.76368 18.238C4.01127 19.0496 4.34692 19.8317 4.76466 20.5703L3.12305 23.7133C3.06145 23.8293 3.0389 23.9621 3.05873 24.0919C3.07857 24.2217 3.13974 24.3417 3.23316 24.434L5.6255 26.8264C5.71781 26.9198 5.83778 26.981 5.96761 27.0008C6.09744 27.0206 6.23021 26.9981 6.3462 26.9365L9.43922 25.2849C10.1709 25.6797 10.9427 25.9951 11.7415 26.2258L12.7425 29.5991C12.7808 29.7233 12.8578 29.832 12.9622 29.9094C13.0666 29.9868 13.193 30.0289 13.323 30.0295H16.7063C16.8363 30.0289 16.9627 29.9868 17.0671 29.9094C17.1715 29.832 17.2485 29.7233 17.2869 29.5991L18.2879 26.2158C19.0798 25.9839 19.8449 25.6685 20.5701 25.2749L23.6831 26.9365C23.7991 26.9981 23.9319 27.0206 24.0617 27.0008C24.1916 26.981 24.3115 26.9198 24.4038 26.8264L26.7962 24.434C26.8896 24.3417 26.9508 24.2217 26.9706 24.0919C26.9904 23.9621 26.9679 23.8293 26.9063 23.7133L25.2447 20.6103C25.6424 19.8823 25.9612 19.1138 26.1956 18.3181L29.5689 17.3171C29.6931 17.2787 29.8018 17.2017 29.8792 17.0973C29.9566 16.9929 29.9987 16.8665 29.9993 16.7365V13.3232C30.0052 13.1987 29.9729 13.0754 29.9067 12.9698C29.8405 12.8643 29.7436 12.7815 29.629 12.7326ZM15.0447 20.5202C13.9558 20.5202 12.8914 20.1973 11.9861 19.5924C11.0807 18.9874 10.3751 18.1276 9.95839 17.1216C9.5417 16.1157 9.43268 15.0087 9.64511 13.9408C9.85753 12.8728 10.3819 11.8919 11.1518 11.1219C11.9218 10.352 12.9027 9.82766 13.9707 9.61523C15.0386 9.4028 16.1455 9.51183 17.1515 9.92852C18.1575 10.3452 19.0173 11.0508 19.6223 11.9562C20.2272 12.8616 20.5501 13.926 20.5501 15.0148C20.5501 16.4749 19.9701 17.8753 18.9376 18.9077C17.9051 19.9402 16.5048 20.5202 15.0447 20.5202Z" fill="#FF9800"/>
</svg>
