<svg width="0" height="0" class="hidden">
  <symbol viewBox="0 0 30 30" xmlns="http://www.w3.org/2000/svg" id="out">
    <path d="M11.817 20.983l2.35 2.35L22.5 15l-8.333-8.333-2.35 2.35 4.3 4.316H0v3.334h16.117l-4.3 4.316zM26.667 0H3.333A3.333 3.333 0 0 0 0 3.333V10h3.333V3.333h23.334v23.334H3.333V20H0v6.667A3.333 3.333 0 0 0 3.333 30h23.334C28.5 30 30 28.5 30 26.667V3.333C30 1.5 28.5 0 26.667 0z" ></path>
  </symbol>
  <symbol viewBox="0 0 30 31" xmlns="http://www.w3.org/2000/svg" id="settings">
    <path d="M29.629 12.733l-3.353-1.001a11.684 11.684 0 0 0-.951-2.333l1.641-3.073a.611.611 0 0 0-.11-.72l-2.392-2.403a.61.61 0 0 0-.72-.11L20.69 4.725c-.748-.42-1.54-.756-2.362-1.001L17.327.41a.61.61 0 0 0-.59-.41h-3.384a.611.611 0 0 0-.58.43L11.77 3.734c-.828.244-1.627.58-2.382 1l-3.003-1.62a.61.61 0 0 0-.72.11L3.233 5.595a.61.61 0 0 0-.11.72L4.745 9.32a11.64 11.64 0 0 0-1.001 2.373l-3.314 1a.61.61 0 0 0-.43.581v3.383a.61.61 0 0 0 .43.581l3.334 1.001a11.61 11.61 0 0 0 1 2.332l-1.641 3.143a.61.61 0 0 0 .11.721l2.392 2.392a.61.61 0 0 0 .721.11l3.093-1.651c.732.395 1.504.71 2.303.94l1 3.374a.61.61 0 0 0 .581.43h3.383a.61.61 0 0 0 .58-.43l1.002-3.383a11.645 11.645 0 0 0 2.282-.941l3.113 1.662a.61.61 0 0 0 .72-.11l2.393-2.393a.61.61 0 0 0 .11-.72l-1.661-3.104c.397-.728.716-1.496.95-2.292l3.374-1a.61.61 0 0 0 .43-.582v-3.413a.61.61 0 0 0-.37-.59zM15.045 20.52a5.505 5.505 0 1 1 0-11.01 5.505 5.505 0 0 1 0 11.01z" ></path>
  </symbol>
  <symbol viewBox="0 0 30 30" xmlns="http://www.w3.org/2000/svg" id="user">
    <path d="M10 11a5 5 0 1 1 10 0 5 5 0 0 1-10 0z"></path>
    <path fill-rule="evenodd" clip-rule="evenodd" d="M15 0a15 15 0 1 0 0 30 15 15 0 0 0 0-30zM2 15a13 13 0 1 1 21.976 9.404A7 7 0 0 0 17 18h-4a7 7 0 0 0-6.976 6.404A12.964 12.964 0 0 1 2 15z" ></path>
  </symbol>
  <symbol viewBox="0 0 20 20" xmlns="http://www.w3.org/2000/svg" id="all">
    <path d="M0 2.222v15.556C0 19 1 20 2.222 20h15.556C19 20 20 19 20 17.778V2.222C20 1 19 0 17.778 0H2.222C1 0 0 1 0 2.222zm8.889 15.556H3.333c-.61 0-1.11-.5-1.11-1.111V11.11h5.555c.61 0 1.11.5 1.11 1.111v5.556zm-1.111-8.89H2.222V3.334c0-.61.5-1.11 1.111-1.11H8.89v5.555c0 .61-.5 1.11-1.111 1.11zm8.889 8.89H11.11v-5.556c0-.61.5-1.11 1.111-1.11h5.556v5.555c0 .61-.5 1.11-1.111 1.11zm1.11-8.89h-5.555c-.61 0-1.11-.5-1.11-1.11V2.222h5.555c.61 0 1.11.5 1.11 1.111V8.89z"></path>
  </symbol>
  <symbol viewBox="0 0 15 10" xmlns="http://www.w3.org/2000/svg" id="arrow">
    <path d="M1.762 9.262L7.5 3.537l5.738 5.725L15 7.5 7.5 0 0 7.5l1.762 1.762z"></path>
  </symbol>
  <symbol viewBox="0 0 20 20" xmlns="http://www.w3.org/2000/svg" id="comleted">
    <path d="M18 2v12H6V2h12zm0-2H6C4.9 0 4 .9 4 2v12c0 1.1.9 2 2 2h12c1.1 0 2-.9 2-2V2c0-1.1-.9-2-2-2zm-7.53 12L7 8.5l1.4-1.41 2.07 2.08L15.6 4 17 5.41 10.47 12zM2 4H0v14c0 1.1.9 2 2 2h14v-2H2V4z"></path>
  </symbol>
<symbol viewBox="0 0 20 20" xmlns="http://www.w3.org/2000/svg" id="new">
    <path d="M16.923 18.462H1.538V3.077h6.924V1.538H1.538A1.538 1.538 0 0 0 0 3.077v15.385A1.538 1.538 0 0 0 1.538 20h15.385a1.538 1.538 0 0 0 1.539-1.538v-6.923h-1.539v6.923zm0-15.385V0h-1.538v3.077h-3.077v1.538h3.076v3.077h1.539V4.615H20V3.077h-3.077z" ></path>
  </symbol>
   <symbol viewBox="0 0 20 15" xmlns="http://www.w3.org/2000/svg" id="priority">
    <path d="M12 15h8v-2h-8v2zm0-5.5h8v-2h-8v2zM12 4h8V2h-8v2zM0 8.5C0 4.92 2.92 2 6.5 2H7V0l3 3-3 3V4h-.5C4 4 2 6 2 8.5S4 13 6.5 13H10v2H6.5C2.92 15 0 12.08 0 8.5z"></path>
  </symbol>
</svg>