<svg width="0" height="0" class="hidden">
  <symbol viewBox="0 0 30 30" xmlns="http://www.w3.org/2000/svg" id="out">
    <path d="M11.817 20.983l2.35 2.35L22.5 15l-8.333-8.333-2.35 2.35 4.3 4.316H0v3.334h16.117l-4.3 4.316zM26.667 0H3.333A3.333 3.333 0 0 0 0 3.333V10h3.333V3.333h23.334v23.334H3.333V20H0v6.667A3.333 3.333 0 0 0 3.333 30h23.334C28.5 30 30 28.5 30 26.667V3.333C30 1.5 28.5 0 26.667 0z" ></path>
  </symbol>
  <symbol viewBox="0 0 30 31" xmlns="http://www.w3.org/2000/svg" id="settings">
    <path d="M29.629 12.733l-3.353-1.001a11.684 11.684 0 0 0-.951-2.333l1.641-3.073a.611.611 0 0 0-.11-.72l-2.392-2.403a.61.61 0 0 0-.72-.11L20.69 4.725c-.748-.42-1.54-.756-2.362-1.001L17.327.41a.61.61 0 0 0-.59-.41h-3.384a.611.611 0 0 0-.58.43L11.77 3.734c-.828.244-1.627.58-2.382 1l-3.003-1.62a.61.61 0 0 0-.72.11L3.233 5.595a.61.61 0 0 0-.11.72L4.745 9.32a11.64 11.64 0 0 0-1.001 2.373l-3.314 1a.61.61 0 0 0-.43.581v3.383a.61.61 0 0 0 .43.581l3.334 1.001a11.61 11.61 0 0 0 1 2.332l-1.641 3.143a.61.61 0 0 0 .11.721l2.392 2.392a.61.61 0 0 0 .721.11l3.093-1.651c.732.395 1.504.71 2.303.94l1 3.374a.61.61 0 0 0 .581.43h3.383a.61.61 0 0 0 .58-.43l1.002-3.383a11.645 11.645 0 0 0 2.282-.941l3.113 1.662a.61.61 0 0 0 .72-.11l2.393-2.393a.61.61 0 0 0 .11-.72l-1.661-3.104c.397-.728.716-1.496.95-2.292l3.374-1a.61.61 0 0 0 .43-.582v-3.413a.61.61 0 0 0-.37-.59zM15.045 20.52a5.505 5.505 0 1 1 0-11.01 5.505 5.505 0 0 1 0 11.01z" ></path>
  </symbol>
  <symbol viewBox="0 0 30 30" xmlns="http://www.w3.org/2000/svg" id="user">
    <path d="M10 11a5 5 0 1 1 10 0 5 5 0 0 1-10 0z"></path>
    <path fill-rule="evenodd" clip-rule="evenodd" d="M15 0a15 15 0 1 0 0 30 15 15 0 0 0 0-30zM2 15a13 13 0 1 1 21.976 9.404A7 7 0 0 0 17 18h-4a7 7 0 0 0-6.976 6.404A12.964 12.964 0 0 1 2 15z" ></path>
  </symbol>
</svg>