<svg width="0" height="0" class="hidden">
  <symbol viewBox="0 0 30 30" xmlns="http://www.w3.org/2000/svg" id="out">
    <path d="M11.817 20.983l2.35 2.35L22.5 15l-8.333-8.333-2.35 2.35 4.3 4.316H0v3.334h16.117l-4.3 4.316zM26.667 0H3.333A3.333 3.333 0 0 0 0 3.333V10h3.333V3.333h23.334v23.334H3.333V20H0v6.667A3.333 3.333 0 0 0 3.333 30h23.334C28.5 30 30 28.5 30 26.667V3.333C30 1.5 28.5 0 26.667 0z" ></path>
  </symbol>

  <symbol viewBox="0 0 30 31" xmlns="http://www.w3.org/2000/svg" id="settings">
    <path d="M29.629 12.733l-3.353-1.001a11.684 11.684 0 0 0-.951-2.333l1.641-3.073a.611.611 0 0 0-.11-.72l-2.392-2.403a.61.61 0 0 0-.72-.11L20.69 4.725c-.748-.42-1.54-.756-2.362-1.001L17.327.41a.61.61 0 0 0-.59-.41h-3.384a.611.611 0 0 0-.58.43L11.77 3.734c-.828.244-1.627.58-2.382 1l-3.003-1.62a.61.61 0 0 0-.72.11L3.233 5.595a.61.61 0 0 0-.11.72L4.745 9.32a11.64 11.64 0 0 0-1.001 2.373l-3.314 1a.61.61 0 0 0-.43.581v3.383a.61.61 0 0 0 .43.581l3.334 1.001a11.61 11.61 0 0 0 1 2.332l-1.641 3.143a.61.61 0 0 0 .11.721l2.392 2.392a.61.61 0 0 0 .721.11l3.093-1.651c.732.395 1.504.71 2.303.94l1 3.374a.61.61 0 0 0 .581.43h3.383a.61.61 0 0 0 .58-.43l1.002-3.383a11.645 11.645 0 0 0 2.282-.941l3.113 1.662a.61.61 0 0 0 .72-.11l2.393-2.393a.61.61 0 0 0 .11-.72l-1.661-3.104c.397-.728.716-1.496.95-2.292l3.374-1a.61.61 0 0 0 .43-.582v-3.413a.61.61 0 0 0-.37-.59zM15.045 20.52a5.505 5.505 0 1 1 0-11.01 5.505 5.505 0 0 1 0 11.01z" ></path>
  </symbol>

  <symbol viewBox="0 0 30 30" xmlns="http://www.w3.org/2000/svg" id="user">
    <path d="M10 11a5 5 0 1 1 10 0 5 5 0 0 1-10 0z"></path>
    <path fill-rule="evenodd" clip-rule="evenodd" d="M15 0a15 15 0 1 0 0 30 15 15 0 0 0 0-30zM2 15a13 13 0 1 1 21.976 9.404A7 7 0 0 0 17 18h-4a7 7 0 0 0-6.976 6.404A12.964 12.964 0 0 1 2 15z" ></path>
  </symbol>

  <symbol viewBox="0 0 20 20" xmlns="http://www.w3.org/2000/svg" id="all">
    <path d="M0 2.222v15.556C0 19 1 20 2.222 20h15.556C19 20 20 19 20 17.778V2.222C20 1 19 0 17.778 0H2.222C1 0 0 1 0 2.222zm8.889 15.556H3.333c-.61 0-1.11-.5-1.11-1.111V11.11h5.555c.61 0 1.11.5 1.11 1.111v5.556zm-1.111-8.89H2.222V3.334c0-.61.5-1.11 1.111-1.11H8.89v5.555c0 .61-.5 1.11-1.111 1.11zm8.889 8.89H11.11v-5.556c0-.61.5-1.11 1.111-1.11h5.556v5.555c0 .61-.5 1.11-1.111 1.11zm1.11-8.89h-5.555c-.61 0-1.11-.5-1.11-1.11V2.222h5.555c.61 0 1.11.5 1.11 1.111V8.89z"></path>
  </symbol>

  <symbol viewBox="0 0 15 10" xmlns="http://www.w3.org/2000/svg" id="arrow">
    <path d="M1.762 9.262L7.5 3.537l5.738 5.725L15 7.5 7.5 0 0 7.5l1.762 1.762z"></path>
  </symbol>

  <symbol viewBox="0 0 20 20" xmlns="http://www.w3.org/2000/svg" id="comleted">
    <path d="M18 2v12H6V2h12zm0-2H6C4.9 0 4 .9 4 2v12c0 1.1.9 2 2 2h12c1.1 0 2-.9 2-2V2c0-1.1-.9-2-2-2zm-7.53 12L7 8.5l1.4-1.41 2.07 2.08L15.6 4 17 5.41 10.47 12zM2 4H0v14c0 1.1.9 2 2 2h14v-2H2V4z"></path>
  </symbol>

<symbol viewBox="0 0 20 20" xmlns="http://www.w3.org/2000/svg" id="new">
    <path d="M16.923 18.462H1.538V3.077h6.924V1.538H1.538A1.538 1.538 0 0 0 0 3.077v15.385A1.538 1.538 0 0 0 1.538 20h15.385a1.538 1.538 0 0 0 1.539-1.538v-6.923h-1.539v6.923zm0-15.385V0h-1.538v3.077h-3.077v1.538h3.076v3.077h1.539V4.615H20V3.077h-3.077z" ></path>
  </symbol>

   <symbol viewBox="0 0 20 15" xmlns="http://www.w3.org/2000/svg" id="priority">
    <path d="M12 15h8v-2h-8v2zm0-5.5h8v-2h-8v2zM12 4h8V2h-8v2zM0 8.5C0 4.92 2.92 2 6.5 2H7V0l3 3-3 3V4h-.5C4 4 2 6 2 8.5S4 13 6.5 13H10v2H6.5C2.92 15 0 12.08 0 8.5z"></path>
  </symbol>

    <symbol viewBox="0 0 50 50" xmlns="http://www.w3.org/2000/svg" id="task-priority">
    <path d="M25 5a20 20 0 1 0 0 40 20 20 0 0 0 0-40zM0 25C0 11.193 11.193 0 25 0s25 11.193 25 25-11.193 25-25 25S0 38.807 0 25z"></path>
    <path d="M25 30a2.5 2.5 0 0 1-2.5-2.5v-15a2.5 2.5 0 0 1 5 0v15A2.5 2.5 0 0 1 25 30zm-3.75 6.25a3.75 3.75 0 1 1 7.5 0 3.75 3.75 0 0 1-7.5 0z"></path>
  </symbol>

  <symbol viewBox="0 0 30 30" xmlns="http://www.w3.org/2000/svg" id="delete">
    <path d="M15 0C6.728 0 0 6.73 0 15s6.728 15 15 15 15-6.73 15-15S23.272 0 15 0zm0 26.667C8.568 26.667 3.333 21.433 3.333 15S8.568 3.333 15 3.333c6.432 0 11.667 5.234 11.667 11.667S21.432 26.667 15 26.667zM16.178 15l4.41-4.41a.837.837 0 0 0 0-1.178.836.836 0 0 0-1.178 0L15 13.822 10.59 9.41a.833.833 0 0 0-1.178 1.178L13.822 15l-4.41 4.41a.834.834 0 0 0 1.178 1.18L15 16.178l4.41 4.41a.833.833 0 1 0 1.18-1.176L16.178 15z"></path>
  </symbol>
  <symbol viewBox="0 0 25 25" xmlns="http://www.w3.org/2000/svg" id="editing">
    <path d="M0 19.792V25h5.208L20.567 9.641l-5.208-5.208L0 19.793zM24.594 5.614a1.382 1.382 0 0 0 0-1.958l-3.25-3.25a1.383 1.383 0 0 0-1.958 0l-2.541 2.541 5.208 5.208 2.54-2.541z"></path>
  </symbol>
  <symbol viewBox="0 0 6 30" xmlns="http://www.w3.org/2000/svg" id="menu">
    <path d="M3 6a3 3 0 1 0 0-6 3 3 0 0 0 0 6zm0 12a3 3 0 1 0 0-6 3 3 0 0 0 0 6zm0 12a3 3 0 1 0 0-6 3 3 0 0 0 0 6z"></path>
  </symbol>

    <symbol viewBox="0 0 75 75" fill="none" xmlns="http://www.w3.org/2000/svg" id="progressbar0">
    <path d="M28.72 44.2c-1.12 0-2.12-.28-3-.84-.88-.573-1.573-1.4-2.08-2.48-.507-1.093-.76-2.387-.76-3.88 0-1.493.253-2.78.76-3.86.507-1.093 1.2-1.92 2.08-2.48.88-.573 1.88-.86 3-.86s2.12.287 3 .86c.893.56 1.593 1.387 2.1 2.48.507 1.08.76 2.367.76 3.86 0 1.493-.253 2.787-.76 3.88-.507 1.08-1.207 1.907-2.1 2.48-.88.56-1.88.84-3 .84zm0-2.26c1 0 1.787-.413 2.36-1.24.587-.827.88-2.06.88-3.7 0-1.64-.293-2.873-.88-3.7-.573-.827-1.36-1.24-2.36-1.24-.987 0-1.773.413-2.36 1.24-.573.827-.86 2.06-.86 3.7 0 1.64.287 2.873.86 3.7.587.827 1.373 1.24 2.36 1.24zm10.737-4.4c-1 0-1.807-.353-2.42-1.06-.613-.707-.92-1.633-.92-2.78 0-1.147.307-2.073.92-2.78.613-.707 1.42-1.06 2.42-1.06s1.807.353 2.42 1.06c.627.693.94 1.62.94 2.78 0 1.16-.313 2.093-.94 2.8-.613.693-1.42 1.04-2.42 1.04zm8.4-7.54h1.96l-9.56 14h-1.96l9.56-14zm-8.4 6.14c.547 0 .967-.213 1.26-.64.307-.427.46-1.027.46-1.8 0-.773-.153-1.373-.46-1.8-.293-.427-.713-.64-1.26-.64-.52 0-.94.22-1.26.66-.307.427-.46 1.02-.46 1.78s.153 1.36.46 1.8c.32.427.74.64 1.26.64zm9.18 8c-1 0-1.807-.353-2.42-1.06-.613-.707-.92-1.633-.92-2.78 0-1.147.307-2.073.92-2.78.613-.707 1.42-1.06 2.42-1.06s1.807.353 2.42 1.06c.627.707.94 1.633.94 2.78 0 1.147-.313 2.073-.94 2.78-.613.707-1.42 1.06-2.42 1.06zm0-1.4c.533 0 .953-.213 1.26-.64.307-.44.46-1.04.46-1.8s-.153-1.353-.46-1.78a1.455 1.455 0 0 0-1.26-.66c-.533 0-.953.213-1.26.64-.307.427-.46 1.027-.46 1.8 0 .773.153 1.373.46 1.8.307.427.727.64 1.26.64z" fill="#CFD8DC"></path>
    <circle cx="37.5" cy="37.5" r="36" stroke="#CFD8DC" stroke-width="3"></circle>
  </symbol>
  <symbol viewBox="0 0 79 79" fill="none" xmlns="http://www.w3.org/2000/svg" id="progressbar50">
    <path d="M23.26 37.42c1.973 0 3.433.386 4.38 1.16.947.76 1.42 1.8 1.42 3.12 0 .84-.207 1.6-.62 2.28-.413.68-1.033 1.22-1.86 1.62-.827.4-1.847.6-3.06.6-1 0-1.967-.14-2.9-.42-.933-.294-1.72-.694-2.36-1.2l1.1-2.02c.52.426 1.14.767 1.86 1.02a7.22 7.22 0 0 0 2.26.36c.92 0 1.64-.187 2.16-.56.533-.387.8-.913.8-1.58 0-.72-.287-1.26-.86-1.62-.56-.373-1.527-.56-2.9-.56H19.3l.72-7.62h8.22v2.18h-6.02l-.3 3.24h1.34zM36.4 46.2c-1.12 0-2.12-.28-3-.84-.88-.574-1.574-1.4-2.08-2.48-.507-1.094-.76-2.387-.76-3.88 0-1.493.253-2.78.76-3.86.506-1.093 1.2-1.92 2.08-2.48.88-.573 1.88-.86 3-.86s2.12.287 3 .86c.893.56 1.593 1.387 2.1 2.48.506 1.08.76 2.367.76 3.86 0 1.493-.254 2.786-.76 3.88-.507 1.08-1.207 1.906-2.1 2.48-.88.56-1.88.84-3 .84zm0-2.26c1 0 1.786-.413 2.36-1.24.586-.827.88-2.06.88-3.7 0-1.64-.294-2.873-.88-3.7-.574-.827-1.36-1.24-2.36-1.24-.987 0-1.774.413-2.36 1.24-.574.827-.86 2.06-.86 3.7 0 1.64.286 2.873.86 3.7.586.826 1.373 1.24 2.36 1.24zm10.737-4.4c-1 0-1.807-.353-2.42-1.06-.614-.707-.92-1.633-.92-2.78 0-1.147.306-2.074.92-2.78.613-.707 1.42-1.06 2.42-1.06s1.806.353 2.42 1.06c.626.693.94 1.62.94 2.78 0 1.16-.314 2.093-.94 2.8-.614.693-1.42 1.04-2.42 1.04zm8.4-7.54h1.96l-9.56 14h-1.96l9.56-14zm-8.4 6.14c.546 0 .966-.214 1.26-.64.306-.427.46-1.027.46-1.8 0-.774-.154-1.373-.46-1.8-.294-.427-.714-.64-1.26-.64-.52 0-.94.22-1.26.66-.307.426-.46 1.02-.46 1.78s.153 1.36.46 1.8c.32.426.74.64 1.26.64zm9.18 8c-1 0-1.807-.354-2.42-1.06-.614-.707-.92-1.633-.92-2.78 0-1.147.306-2.073.92-2.78.613-.707 1.42-1.06 2.42-1.06s1.806.353 2.42 1.06c.626.706.94 1.633.94 2.78 0 1.147-.314 2.073-.94 2.78-.614.706-1.42 1.06-2.42 1.06zm0-1.4c.533 0 .953-.214 1.26-.64.306-.44.46-1.04.46-1.8s-.154-1.353-.46-1.78a1.455 1.455 0 0 0-1.26-.66c-.534 0-.954.213-1.26.64-.307.426-.46 1.026-.46 1.8 0 .773.153 1.373.46 1.8.306.426.726.64 1.26.64z" fill="#FF9800"></path>
    <circle cx="39.5" cy="39.5" r="37.5" stroke="#CFD8DC" stroke-width="3"></circle>
    <path d="M39.773 76.999a37.499 37.499 0 0 1-26.982-63.822A37.5 37.5 0 0 1 39.227 2.001" stroke="#FF9800" stroke-width="3"></path>
  </symbol>
  <symbol viewBox="0 0 75 75" fill="none" xmlns="http://www.w3.org/2000/svg" id="progressbar100">
    <path d="M16.72 30v14h-2.6V32.18h-2.96V30h5.56zm8.617 14.2c-1.12 0-2.12-.28-3-.84-.88-.573-1.573-1.4-2.08-2.48-.507-1.093-.76-2.387-.76-3.88 0-1.493.253-2.78.76-3.86.507-1.093 1.2-1.92 2.08-2.48.88-.573 1.88-.86 3-.86s2.12.287 3 .86c.893.56 1.593 1.387 2.1 2.48.507 1.08.76 2.367.76 3.86 0 1.493-.253 2.787-.76 3.88-.507 1.08-1.207 1.907-2.1 2.48-.88.56-1.88.84-3 .84zm0-2.26c1 0 1.787-.413 2.36-1.24.587-.827.88-2.06.88-3.7 0-1.64-.293-2.873-.88-3.7-.573-.827-1.36-1.24-2.36-1.24-.986 0-1.773.413-2.36 1.24-.573.827-.86 2.06-.86 3.7 0 1.64.287 2.873.86 3.7.587.827 1.373 1.24 2.36 1.24zm13.457 2.26c-1.12 0-2.12-.28-3-.84-.88-.573-1.573-1.4-2.08-2.48-.506-1.093-.76-2.387-.76-3.88 0-1.493.254-2.78.76-3.86.507-1.093 1.2-1.92 2.08-2.48.88-.573 1.88-.86 3-.86s2.12.287 3 .86c.894.56 1.594 1.387 2.1 2.48.507 1.08.76 2.367.76 3.86 0 1.493-.253 2.787-.76 3.88-.506 1.08-1.206 1.907-2.1 2.48-.88.56-1.88.84-3 .84zm0-2.26c1 0 1.787-.413 2.36-1.24.587-.827.88-2.06.88-3.7 0-1.64-.293-2.873-.88-3.7-.573-.827-1.36-1.24-2.36-1.24-.986 0-1.773.413-2.36 1.24-.573.827-.86 2.06-.86 3.7 0 1.64.287 2.873.86 3.7.587.827 1.374 1.24 2.36 1.24zm10.737-4.4c-1 0-1.806-.353-2.42-1.06-.613-.707-.92-1.633-.92-2.78 0-1.147.307-2.073.92-2.78.614-.707 1.42-1.06 2.42-1.06s1.807.353 2.42 1.06c.627.693.94 1.62.94 2.78 0 1.16-.313 2.093-.94 2.8-.613.693-1.42 1.04-2.42 1.04zm8.4-7.54h1.96l-9.56 14h-1.96l9.56-14zm-8.4 6.14c.547 0 .967-.213 1.26-.64.307-.427.46-1.027.46-1.8 0-.773-.153-1.373-.46-1.8-.293-.427-.713-.64-1.26-.64-.52 0-.94.22-1.26.66-.306.427-.46 1.02-.46 1.78s.154 1.36.46 1.8c.32.427.74.64 1.26.64zm9.18 8c-1 0-1.806-.353-2.42-1.06-.613-.707-.92-1.633-.92-2.78 0-1.147.307-2.073.92-2.78.614-.707 1.42-1.06 2.42-1.06s1.807.353 2.42 1.06c.627.707.94 1.633.94 2.78 0 1.147-.313 2.073-.94 2.78-.613.707-1.42 1.06-2.42 1.06zm0-1.4c.534 0 .954-.213 1.26-.64.307-.44.46-1.04.46-1.8s-.153-1.353-.46-1.78a1.455 1.455 0 0 0-1.26-.66c-.533 0-.953.213-1.26.64-.306.427-.46 1.027-.46 1.8 0 .773.154 1.373.46 1.8.307.427.727.64 1.26.64z" fill="#FF9800"></path>
    <circle cx="37.5" cy="37.5" r="36" stroke="#FF9800" stroke-width="3"></circle>
  </symbol>

    <symbol viewBox="0 0 8 12" xmlns="http://www.w3.org/2000/svg" id="arrow-left">
    <path d="M7.41 10.59L2.83 6l4.58-4.59L6 0 0 6l6 6 1.41-1.41z"></path>
  </symbol>

   <symbol xmlns="http://www.w3.org/2000/svg" viewBox="0 0 20 20" id="add">
    <path d="M10 2c4.41 0 8 3.59 8 8s-3.59 8-8 8-8-3.59-8-8 3.59-8 8-8zm0-2C4.477 0 0 4.477 0 10s4.477 10 10 10 10-4.477 10-10S15.523 0 10 0zm5 9h-4V5H9v4H5v2h4v4h2v-4h4V9z"></path>
  </symbol>

   <symbol xmlns="http://www.w3.org/2000/svg" viewBox="0 0 20 18" id="arrow-right">
    <path d="M0 10V7.5h15l-5-5L11.25 0 20 8.75l-8.75 8.75L10 15l5-5H0z"></path>
  </symbol>
  <symbol xmlns="http://www.w3.org/2000/svg" viewBox="0 0 20 20" id="excel">
    <path d="M17.717 10.451h-3.181v-1.59h3.18v1.59zm0 .909h-3.181v1.59h3.18v-1.59zm0-7.498h-3.181v1.59h3.18v-1.59zm0 2.5h-3.181v1.59h3.18v-1.59zm0 7.497h-3.181v1.59h3.18v-1.59zm2.197 3.135c-.091.473-.66.484-1.039.5H11.81v2.045h-1.411L0 17.72V1.82L10.46 0h1.35v1.81h6.822c.384.017.807-.01 1.14.219.235.336.212.763.228 1.15l-.01 11.827c-.01.661.062 1.336-.076 1.988zM8.33 13.43c-.627-1.273-1.265-2.536-1.89-3.808a458.21 458.21 0 001.833-3.724 69.51 69.51 0 00-1.544.093c-.384.934-.832 1.843-1.132 2.808-.28-.91-.65-1.788-.988-2.676-.5.027-1 .057-1.5.086.527 1.163 1.089 2.31 1.6 3.48-.602 1.137-1.166 2.289-1.75 3.431.498.02.995.041 1.493.048.354-.904.795-1.774 1.104-2.697.277.991.748 1.907 1.134 2.854.547.039 1.093.073 1.64.105zM18.916 2.89H11.81v.972h1.817v1.59H11.81v.91h1.817v1.59H11.81v.909h1.817v1.59H11.81v.909h1.817v1.59H11.81v.909h1.817v1.59H11.81v1.05h7.106V2.89z"></path>
  </symbol>
  <symbol xmlns="http://www.w3.org/2000/svg" viewBox="0 0 20 20" id="inquiry">
    <path d="M18.75 20h-10v-.02c-.339 0-.632-.12-.879-.36a1.19 1.19 0 01-.371-.888v-2.38a6.509 6.509 0 002.705-2.147c.697-.95 1.045-1.938 1.045-2.966 0-.898-.28-1.73-.84-2.498-.56-.767-1.318-1.375-2.275-1.824-.957-.449-2.002-.673-3.135-.673-.339 0-.632-.12-.879-.361a1.19 1.19 0 01-.371-.888V1.268c0-.338.124-.63.371-.878A1.2 1.2 0 015 .02h7.5v6.868a.6.6 0 00.185.439c.124.123.27.185.44.185h6.855c.014.013.02.026.02.04v11.2c0 .35-.12.646-.361.887-.241.24-.537.361-.889.361zm-5-20c.338.013.625.137.86.37l5.019 5.015c.247.248.364.54.351.878h-6.23V0zM10 11.239c0 .872-.352 1.642-1.055 2.312-.703.67-1.601 1.11-2.695 1.317v.742a.618.618 0 01-.625.624h-1.25a.618.618 0 01-.625-.624v-1.873c0-.339.124-.631.371-.879a1.2 1.2 0 01.879-.37c.69 0 1.28-.12 1.768-.361.488-.24.732-.534.732-.878 0-.345-.244-.64-.732-.888-.489-.247-1.078-.37-1.768-.37s-1.28.123-1.768.37-.732.54-.732.878a.618.618 0 01-.625.624H.625A.618.618 0 010 11.24V9.99c0-.195.114-.429.342-.702.228-.273.543-.547.947-.82.404-.273.934-.504 1.592-.692A7.655 7.655 0 015 7.493c1.38 0 2.559.367 3.535 1.102C9.512 9.33 10 10.211 10 11.24zm-5.625 6.244h1.25a.6.6 0 01.44.185.6.6 0 01.185.44v1.248a.618.618 0 01-.625.624h-1.25a.618.618 0 01-.625-.624v-1.249a.6.6 0 01.186-.439.6.6 0 01.439-.185z"></path>
  </symbol>
  <symbol xmlns="http://www.w3.org/2000/svg" viewBox="0 0 16 20" id="pdf">
    <path d="M4.267 12.68c-.184 0-.308.018-.372.036v1.178c.076.018.171.023.302.023.479 0 .774-.242.774-.651 0-.366-.254-.586-.704-.586zm3.487.012c-.2 0-.33.018-.407.036v2.61c.077.018.201.018.313.018.817.006 1.349-.444 1.349-1.396.006-.83-.479-1.268-1.255-1.268z"></path>
    <path d="M10 0H2a2 2 0 00-2 2v16a2 2 0 002 2h12a2 2 0 002-2V6l-6-6zM5.498 14.19c-.309.29-.765.42-1.296.42a2.233 2.233 0 01-.308-.018v1.426H3v-3.936A7.53 7.53 0 014.219 12c.557 0 .953.106 1.22.319.254.202.426.533.426.923-.001.392-.131.723-.367.948zm3.807 1.355c-.42.349-1.059.515-1.84.515-.468 0-.799-.03-1.024-.06v-3.917A7.943 7.943 0 017.66 12c.757 0 1.249.136 1.633.426.415.308.675.799.675 1.504 0 .763-.279 1.29-.663 1.615zM13 12.77h-1.532v.911H12.9v.734h-1.432v1.604h-.906V12.03H13v.74zM10 7H9V2l5 5h-4z"></path>
  </symbol>
  <symbol xmlns="http://www.w3.org/2000/svg" viewBox="0 0 18 23" id="report">
    <path d="M10.143 1L17 7.857v13.714H1V1h9.143z" stroke="#CFD8DC" stroke-width="2" stroke-linecap="round" stroke-linejoin="round"></path>
    <path d="M9.572 1v6.286H17" stroke="#CFD8DC" stroke-linecap="round" stroke-linejoin="round"></path>
    <path d="M5.572 17v-3.428M9 17v-4.572M12.428 17v-5.714" stroke="#CFD8DC" stroke-width="2" stroke-linecap="round"></path>
  </symbol>
  <symbol xmlns="http://www.w3.org/2000/svg" viewBox="0 0 20 20" id="template">
    <path fill-rule="evenodd" clip-rule="evenodd" d="M0 0v6.667h20V0H0zm17.778 2.222H2.222v2.222h15.556V2.222zM0 8.889V20h8.889V8.889H0zm6.667 2.222H2.222v6.667h4.445V11.11z"></path>
    <path d="M20 8.889h-8.889v2.222H20V8.89zm-8.889 4.444H20v2.223h-8.889v-2.223zM20 17.778h-8.889V20H20v-2.222z"></path>
  </symbol>
  <symbol xmlns="http://www.w3.org/2000/svg" viewBox="0 0 20 20" id="to-form">
    <path d="M18 14h2v6h-6v-2H6v2H0v-6h2V6H0V0h6v2h8V0h6v6h-2v8zm-2 0V6h-2V4H6v2H4v8h2v2h8v-2h2zM2 2v2h2V2H2zm0 14v2h2v-2H2zM16 2v2h2V2h-2zm0 14v2h2v-2h-2z"></path>
  </symbol>
</svg>