<svg width="50" height="50" viewBox="0 0 50 50" fill="none" xmlns="http://www.w3.org/2000/svg">
<path d="M25 5C19.6957 5 14.6086 7.10714 10.8579 10.8579C7.10714 14.6086 5 19.6957 5 25C5 30.3043 7.10714 35.3914 10.8579 39.1421C14.6086 42.8929 19.6957 45 25 45C30.3043 45 35.3914 42.8929 39.1421 39.1421C42.8929 35.3914 45 30.3043 45 25C45 19.6957 42.8929 14.6086 39.1421 10.8579C35.3914 7.10714 30.3043 5 25 5ZM0 25C0 11.1925 11.1925 0 25 0C38.8075 0 50 11.1925 50 25C50 38.8075 38.8075 50 25 50C11.1925 50 0 38.8075 0 25Z" fill="#FF0000"/>
<path d="M25 30C24.337 30 23.7011 29.7366 23.2322 29.2678C22.7634 28.7989 22.5 28.163 22.5 27.5V12.5C22.5 11.837 22.7634 11.2011 23.2322 10.7322C23.7011 10.2634 24.337 10 25 10C25.663 10 26.2989 10.2634 26.7678 10.7322C27.2366 11.2011 27.5 11.837 27.5 12.5V27.5C27.5 28.163 27.2366 28.7989 26.7678 29.2678C26.2989 29.7366 25.663 30 25 30Z" fill="#FF0000"/>
<path d="M21.25 36.25C21.25 35.2554 21.6451 34.3016 22.3483 33.5983C23.0516 32.8951 24.0054 32.5 25 32.5C25.9946 32.5 26.9484 32.8951 27.6517 33.5983C28.3549 34.3016 28.75 35.2554 28.75 36.25C28.75 37.2446 28.3549 38.1984 27.6517 38.9016C26.9484 39.6049 25.9946 40 25 40C24.0054 40 23.0516 39.6049 22.3483 38.9016C21.6451 38.1984 21.25 37.2446 21.25 36.25Z" fill="#FF0000"/>
</svg>
