<svg width="30" height="30" viewBox="0 0 30 30" fill="none" xmlns="http://www.w3.org/2000/svg">
<path d="M10 11C10 9.67392 10.5268 8.40215 11.4645 7.46447C12.4021 6.52678 13.6739 6 15 6C16.3261 6 17.5979 6.52678 18.5355 7.46447C19.4732 8.40215 20 9.67392 20 11C20 12.3261 19.4732 13.5979 18.5355 14.5355C17.5979 15.4732 16.3261 16 15 16C13.6739 16 12.4021 15.4732 11.4645 14.5355C10.5268 13.5979 10 12.3261 10 11Z" fill="#FF9800"/>
<path fill-rule="evenodd" clip-rule="evenodd" d="M15 0C11.0218 0 7.20644 1.58035 4.3934 4.3934C1.58035 7.20644 0 11.0218 0 15C0 18.9782 1.58035 22.7936 4.3934 25.6066C7.20644 28.4196 11.0218 30 15 30C18.9782 30 22.7936 28.4196 25.6066 25.6066C28.4196 22.7936 30 18.9782 30 15C30 11.0218 28.4196 7.20644 25.6066 4.3934C22.7936 1.58035 18.9782 0 15 0V0ZM2 15C2.00003 12.8493 2.53363 10.7323 3.55298 8.83856C4.57233 6.94483 6.04558 5.33357 7.84072 4.14918C9.63586 2.96478 11.6968 2.24426 13.8389 2.05216C15.9809 1.86007 18.1372 2.20241 20.1144 3.04851C22.0916 3.8946 23.828 5.21802 25.1681 6.90018C26.5081 8.58233 27.4099 10.5707 27.7925 12.687C28.1752 14.8033 28.0269 16.9815 27.3608 19.0264C26.6947 21.0713 25.5317 22.9191 23.976 24.404C23.8267 22.6568 23.027 21.0292 21.7352 19.8434C20.4434 18.6575 18.7536 17.9996 17 18H13C11.2464 17.9996 9.55656 18.6575 8.26476 19.8434C6.97296 21.0292 6.17331 22.6568 6.024 24.404C4.75054 23.1914 3.73709 21.7323 3.04531 20.1156C2.35353 18.499 1.99788 16.7585 2 15Z" fill="#FF9800"/>
</svg>
